<svg xmlns="http://www.w3.org/2000/svg" viewBox="0 0 222.59 127.92"><g id="Layer_2" data-name="Layer 2"><g id="Layer_1-2" data-name="Layer 1"><path d="M112.24,89.55c1.37-1.65,2.4-3.08,3.63-4.31Q155.39,45.64,195,6.1c4.52-4.52,9.87-6.19,16.07-4.39a15.15,15.15,0,0,1,11.14,12c1.29,5.81-.5,10.81-4.69,15L187.32,58.83l-62.45,62.44c-8.85,8.85-17.51,8.86-26.33,0Q52.1,74.87,5.66,28.42C-2.8,20-1.61,7.51,8.11,2.05,14.54-1.56,22.19-.36,27.94,5.36Q46.65,24,65.24,42.68q21.95,22,43.89,44C109.91,87.43,110.74,88.16,112.24,89.55Z"/></g></g></svg>